<?xml version="1.0" standalone="no"?>
<!DOCTYPE svg PUBLIC "-//W3C//DTD SVG 20010904//EN"
 "http://www.w3.org/TR/2001/REC-SVG-20010904/DTD/svg10.dtd">
<svg version="1.0" xmlns="http://www.w3.org/2000/svg"
 width="1024.000000pt" height="1024.000000pt" viewBox="0 0 1024.000000 1024.000000"
 preserveAspectRatio="xMidYMid meet">

<g transform="translate(0.000000,1024.000000) scale(0.100000,-0.100000)"
fill="#000000" stroke="none">
<path d="M0 9253 c0 -549 4 -983 9 -977 4 5 49 70 99 144 189 281 522 672 824
966 252 245 626 545 938 751 l155 103 -1012 0 -1013 0 0 -987z"/>
<path d="M8293 10141 c306 -207 452 -319 676 -515 430 -377 837 -844 1161
-1331 51 -77 96 -144 101 -149 5 -6 9 443 9 1042 l0 1052 -1047 0 -1047 0 147
-99z"/>
<path d="M4840 8664 c-316 -29 -664 -112 -980 -237 -712 -279 -1278 -758
-1703 -1436 -287 -460 -461 -980 -523 -1561 -13 -120 -15 -212 -11 -405 4
-212 21 -430 33 -444 2 -2 84 75 184 170 l180 174 4 235 c4 237 14 332 56 530
92 431 244 821 429 1108 l60 92 205 0 206 0 -21 -52 c-88 -221 -123 -322 -117
-337 3 -7 433 70 487 86 18 6 30 26 52 88 16 44 41 110 55 148 l26 67 300 0
c280 0 299 -1 294 -17 -10 -35 -27 -145 -23 -149 2 -3 80 9 173 25 93 16 189
33 214 36 77 11 79 12 82 61 l3 44 285 3 c157 2 295 7 308 12 14 5 54 53 102
124 43 64 99 141 124 171 l46 55 -105 3 -105 3 0 458 c0 252 -3 473 -6 490 -4
17 -3 31 2 31 5 0 42 -44 82 -98 91 -121 206 -351 262 -522 23 -69 43 -131 46
-138 2 -9 28 8 72 49 37 34 111 96 165 137 53 41 97 82 97 90 0 9 -24 62 -54
118 l-55 103 52 -31 c29 -17 81 -49 117 -72 l65 -42 64 42 c152 100 380 199
599 259 119 33 120 29 -13 105 -361 208 -742 342 -1143 401 -132 20 -550 34
-672 23z m147 -1401 c-2 -2 -99 -2 -214 -1 l-210 3 19 95 c11 52 44 169 74
260 80 242 175 429 282 559 l47 56 3 -484 c1 -266 1 -486 -1 -488z m-627 688
c-45 -90 -168 -452 -220 -648 l-11 -43 -229 0 -229 0 66 95 c145 210 346 420
531 558 57 42 105 77 108 77 2 0 -5 -18 -16 -39z m-746 -117 c-130 -144 -196
-229 -310 -401 l-115 -173 -170 0 -171 0 40 48 c22 26 80 86 129 133 185 179
339 300 493 384 58 32 119 66 135 75 17 9 32 16 34 14 2 -2 -27 -38 -65 -80z"/>
<path d="M6980 7895 c-314 -50 -585 -158 -835 -334 -300 -210 -648 -597 -810
-899 -17 -31 -37 -54 -49 -57 -12 -3 -100 -19 -196 -36 -96 -17 -332 -59 -525
-94 -192 -35 -420 -76 -505 -90 -85 -14 -229 -39 -320 -55 -91 -16 -268 -48
-395 -70 -126 -22 -318 -56 -425 -74 -107 -19 -238 -42 -292 -51 l-96 -17 -47
-147 c-65 -200 -145 -464 -142 -467 1 -1 252 -25 557 -53 686 -64 1056 -100
1093 -107 15 -3 27 -10 25 -14 -2 -5 -66 -82 -143 -171 l-140 -161 -350 6
c-192 3 -458 7 -589 7 l-239 1 -120 -120 -119 -119 83 -50 c134 -81 412 -237
720 -407 l287 -158 194 -216 c106 -119 265 -299 353 -399 87 -101 161 -183
164 -183 4 1 76 60 161 133 l155 133 -4 366 -4 366 94 69 c194 143 830 595
832 592 5 -8 175 -196 328 -363 146 -161 200 -220 483 -536 67 -74 189 -207
271 -295 165 -177 299 -323 449 -488 l98 -107 146 141 c81 78 148 149 150 158
1 9 -42 156 -97 326 -111 346 -309 973 -426 1345 -42 135 -91 292 -110 350
-77 240 -125 399 -125 413 0 8 24 30 53 48 28 18 104 71 167 118 546 402 870
830 966 1276 19 85 21 215 5 272 -30 108 -128 189 -267 218 -87 18 -346 18
-464 0z m391 -156 c55 -12 103 -41 133 -82 29 -40 28 -138 -3 -232 -92 -282
-306 -572 -645 -874 -127 -113 -544 -456 -730 -601 -60 -47 -153 -120 -207
-162 -130 -102 -255 -197 -899 -682 -575 -432 -963 -736 -1127 -882 -121 -108
-133 -118 -133 -112 0 3 100 98 223 213 455 425 881 865 1243 1280 520 597
490 562 934 1095 406 487 574 673 764 848 l78 73 -4 55 c-6 65 -8 63 94 74 82
10 206 5 279 -11z m-531 -72 c0 -27 -7 -36 -46 -61 -52 -33 -130 -94 -225
-178 l-67 -58 -58 35 c-32 19 -73 41 -91 47 -18 7 -33 17 -33 23 0 23 189 133
303 175 69 26 200 59 210 53 4 -2 7 -19 7 -36z m-3555 -1987 c390 -23 562 -35
795 -55 91 -8 171 -15 178 -15 8 0 2 -15 -15 -41 -26 -39 -28 -40 -72 -35 -25
3 -221 22 -436 41 -616 56 -1145 117 -1145 133 0 7 283 -4 695 -28z"/>
<path d="M7882 6989 c-22 -46 -70 -133 -106 -192 l-66 -108 65 -122 c35 -67
82 -169 105 -227 42 -108 123 -368 135 -433 l7 -37 -210 0 -210 0 -12 53 c-15
61 -94 323 -117 385 l-16 43 -72 -71 -72 -72 42 -131 c24 -73 46 -149 49 -169
l7 -38 -277 0 c-259 0 -276 -1 -269 -17 5 -10 35 -96 68 -190 l60 -173 242 0
243 0 8 -97 c9 -113 7 -508 -4 -633 l-7 -85 -117 -3 c-65 -1 -118 -6 -118 -10
0 -3 28 -91 62 -194 59 -178 64 -187 85 -182 26 7 28 -3 14 -53 -8 -28 -1 -57
41 -185 61 -180 52 -186 118 75 l43 167 203 0 c170 0 204 -2 204 -14 0 -31
-71 -259 -121 -386 -57 -146 -156 -348 -238 -484 l-52 -86 -52 0 -52 0 -173
-179 c-94 -99 -172 -182 -172 -185 0 -3 37 -6 83 -8 l82 -3 -125 -125 c-146
-147 -346 -309 -490 -398 -104 -65 -300 -172 -315 -172 -4 0 14 24 41 52 166
178 446 562 432 596 -3 9 -165 184 -322 349 l-69 73 -209 0 c-163 0 -208 3
-208 13 0 7 6 64 14 127 8 63 17 153 21 200 l6 85 -122 130 c-67 72 -215 229
-329 350 -113 121 -235 252 -271 292 -35 39 -67 71 -71 72 -11 1 -264 -180
-501 -358 l-48 -36 118 -5 118 -5 3 -432 2 -433 -210 0 c-184 0 -214 -2 -238
-17 -15 -10 -95 -75 -179 -145 l-152 -128 -114 0 -115 0 -88 102 c-49 56 -106
121 -128 145 l-39 43 -108 0 -109 0 -24 48 c-30 58 -90 232 -100 286 -7 37
-111 196 -128 196 -4 0 -52 -39 -105 -87 -54 -49 -122 -108 -151 -132 -28 -24
-52 -50 -52 -58 0 -7 27 -67 60 -133 l60 -120 -220 0 -220 0 -153 -141 c-83
-78 -160 -149 -170 -158 -16 -16 -10 -26 108 -173 547 -686 1295 -1126 2155
-1267 556 -91 1123 -30 1690 181 660 246 1270 739 1685 1363 319 481 529 1105
576 1715 14 188 6 527 -16 690 -41 300 -130 634 -245 925 -74 187 -235 488
-318 594 l-19 24 -41 -84z m230 -1564 c12 -100 11 -400 -2 -577 l-13 -166
-121 -7 c-67 -3 -166 -5 -221 -3 l-100 3 5 100 c3 55 4 238 3 408 l-1 307 221
-2 222 -3 7 -60z m-2445 -1527 c-5 -266 -12 -355 -42 -535 l-8 -43 -228 0
-229 0 0 435 0 435 256 0 256 0 -5 -292z m-2305 -1121 c119 -180 241 -341 351
-461 l72 -80 -80 44 c-359 197 -632 400 -806 601 l-51 59 204 -1 203 0 107
-162z m805 91 c33 -164 177 -590 215 -635 26 -32 -12 -7 -96 61 -188 154 -370
354 -501 551 -30 45 -55 85 -55 89 0 3 95 5 212 4 l211 -3 14 -67z m711 65
l112 -6 0 -471 0 -470 -30 34 c-128 147 -253 391 -326 635 -30 99 -65 266 -58
277 6 10 146 10 302 1z m685 -40 c-22 -150 -119 -445 -193 -593 -33 -65 -136
-220 -179 -270 l-30 -35 -1 468 0 467 204 0 205 0 -6 -37z m847 29 c0 -17
-117 -182 -197 -279 -97 -117 -293 -310 -382 -376 -35 -26 -65 -46 -67 -44 -3
2 16 46 40 98 55 116 116 301 159 476 l32 133 208 0 c114 0 207 -4 207 -8z"/>
<path d="M1933 4558 c-32 -28 -98 -89 -146 -134 l-89 -83 47 -168 c52 -184
109 -351 176 -513 49 -121 183 -388 204 -410 13 -12 30 0 132 101 65 63 247
237 406 388 158 151 287 279 287 285 0 9 -344 219 -383 235 -14 5 1 -69 39
-199 19 -63 37 -120 39 -127 4 -12 -267 -273 -284 -273 -21 0 -123 262 -186
480 l-42 145 185 5 186 5 -155 90 c-84 49 -200 120 -256 157 l-101 67 -59 -51z"/>
<path d="M10166 1973 c-197 -299 -410 -567 -695 -876 -205 -221 -271 -285
-465 -455 -204 -178 -446 -361 -758 -572 l-96 -65 1041 -3 c572 -1 1042 -1
1044 1 2 2 2 470 1 1039 l-3 1036 -69 -105z"/>
<path d="M0 972 l0 -972 1023 0 c908 1 1020 3 1002 16 -11 8 -101 68 -200 132
-572 375 -1131 889 -1556 1432 -58 74 -138 182 -179 240 -40 58 -77 109 -82
115 -4 5 -8 -428 -8 -963z"/>
</g>
</svg>
